<?xml version="1.0" standalone="no"?>
<!DOCTYPE svg PUBLIC "-//W3C//DTD SVG 20010904//EN"
 "http://www.w3.org/TR/2001/REC-SVG-20010904/DTD/svg10.dtd">
<svg version="1.0" xmlns="http://www.w3.org/2000/svg"
 width="700.000000pt" height="700.000000pt" viewBox="0 0 700.000000 700.000000"
 preserveAspectRatio="xMidYMid meet">
<metadata>
Created by potrace 1.11, written by Peter Selinger 2001-2013
</metadata>
<g transform="translate(0.000000,700.000000) scale(0.100000,-0.100000)"
fill="#000000" stroke="none">
<path d="M1660 5994 c-557 -50 -878 -240 -955 -565 -21 -93 -19 -249 5 -343
76 -298 317 -417 1120 -556 129 -22 260 -47 290 -56 111 -32 156 -81 148 -159
-13 -114 -132 -175 -344 -175 -227 0 -396 84 -435 216 -7 24 -18 44 -24 44 -5
0 -185 -9 -400 -20 -214 -11 -408 -20 -429 -20 l-39 0 6 -64 c16 -166 70 -289
172 -391 83 -82 153 -126 278 -173 432 -163 1088 -185 1492 -50 263 88 456
248 555 460 45 97 63 194 57 313 -13 251 -128 392 -391 481 -93 32 -267 65
-601 114 -154 23 -322 50 -373 61 -172 35 -242 81 -242 161 0 108 124 178 313
178 201 -1 378 -87 416 -203 15 -44 -38 -43 466 -17 215 11 395 20 402 20 8 0
7 16 -4 58 -23 90 -60 170 -119 258 -144 218 -390 352 -749 410 -97 15 -509
27 -615 18z"/>
<path d="M3112 5901 c1 -4 231 -256 511 -559 279 -303 507 -554 507 -558 0 -3
-134 -144 -298 -313 -390 -401 -853 -878 -1402 -1446 -245 -253 -591 -611
-770 -795 -179 -185 -460 -475 -625 -645 -165 -171 -344 -356 -399 -413 l-100
-102 820 0 819 0 1214 1600 c667 880 1217 1600 1221 1600 4 0 105 -135 225
-301 120 -165 223 -303 229 -305 6 -2 244 -3 528 -2 l518 3 -510 583 -510 582
494 532 c272 293 494 533 493 534 -1 1 -227 4 -502 8 l-500 7 -250 -296 c-137
-162 -252 -295 -255 -295 -3 0 -95 132 -206 293 l-200 292 -528 3 c-295 1
-526 -2 -524 -7z"/>
<path d="M5010 3404 c-299 -21 -505 -70 -685 -163 -69 -35 -109 -65 -170 -126
-128 -127 -175 -247 -175 -445 0 -331 147 -491 560 -609 147 -42 298 -74 565
-121 240 -42 332 -63 375 -85 75 -39 99 -119 58 -190 -69 -119 -349 -159 -564
-81 -113 41 -168 92 -200 185 -12 36 -13 36 -66 34 -29 -2 -204 -10 -388 -18
-184 -9 -358 -18 -386 -21 l-50 -5 8 -67 c42 -328 228 -508 635 -612 220 -57
369 -74 668 -74 239 0 285 2 400 23 300 53 494 148 657 320 84 89 129 159 166
263 23 65 26 87 26 208 0 110 -4 146 -20 196 -63 186 -208 293 -487 359 -56
13 -241 45 -412 70 -514 77 -599 97 -657 156 -24 23 -28 36 -28 80 0 49 3 55
43 93 67 65 194 92 344 75 178 -20 287 -79 332 -180 l26 -59 45 5 c25 2 200
12 390 20 190 9 364 18 387 21 l41 5 -25 82 c-109 360 -405 575 -884 642 -111
15 -421 26 -529 19z"/>
</g>
</svg>
